<?xml version="1.0" encoding="UTF-8"?>
<svg id="Layer_1" data-name="Layer 1" xmlns="http://www.w3.org/2000/svg" xmlns:xlink="http://www.w3.org/1999/xlink" viewBox="0 0 32 32">
  <defs>
    <style>
      .cls-1 {
        fill: url(#linear-gradient);
      }
    </style>
    <linearGradient id="linear-gradient" x1=".43" y1="30.35" x2="32.92" y2="6.07" gradientUnits="userSpaceOnUse">
      <stop offset="0" stop-color="#40c9ff"/>
      <stop offset=".15" stop-color="#53b5ff"/>
      <stop offset=".46" stop-color="#8581ff"/>
      <stop offset=".9" stop-color="#d52eff"/>
      <stop offset=".99" stop-color="#e81cff"/>
    </linearGradient>
  </defs>
  <path class="cls-1" d="M16.54,6.03h-7.34c-.64,0-1.15,.52-1.15,1.15v7.34c0,.64,.52,1.15,1.15,1.15h7.34c.64,0,1.15-.52,1.15-1.15V7.18c0-.64-.52-1.15-1.15-1.15Zm-5.03,5.09l-.76-1.37h-.21v1.37h-.89v-3.64h1.49c.89,0,1.34,.51,1.34,1.15,0,.46-.25,.89-.81,1.05l.84,1.44h-1Zm.07-2.46c0,.29-.16,.46-.49,.46h-.55v-.9h.55c.33,0,.49,.18,.49,.45ZM3.98,18.76l.45,1.33h-.9l.45-1.33Zm5.3-2.43H1.93c-.64,0-1.15,.52-1.15,1.15v7.34c0,.64,.52,1.15,1.15,1.15h7.34c.64,0,1.15-.52,1.15-1.15v-7.34c0-.64-.52-1.15-1.15-1.15Zm-4.4,5.09l-.22-.64h-1.36l-.22,.64h-.93l1.32-3.64h1.03l1.32,3.64h-.94Zm14.8-5.09h-7.34c-.64,0-1.15,.52-1.15,1.15v7.34c0,.64,.52,1.15,1.15,1.15h7.34c.64,0,1.15-.52,1.15-1.15v-7.34c0-.64-.52-1.15-1.15-1.15Zm-4.37,2.13l-1.57,2.24h1.57v.73h-2.57v-.67l1.55-2.24h-1.55v-.73h2.57v.67Zm14.77-2.13h-7.34c-.64,0-1.15,.52-1.15,1.15v7.34c0,.64,.52,1.15,1.15,1.15h7.34c.64,0,1.15-.52,1.15-1.15v-7.34c0-.64-.52-1.15-1.15-1.15Zm-5.52,5.09h-1.36v-3.64h1.36c1.16,0,1.91,.74,1.91,1.82s-.75,1.82-1.91,1.82Zm1.01-1.82c0,.67-.39,1.05-1.06,1.05h-.42v-2.11h.42c.67,0,1.06,.39,1.06,1.06Z"/>
</svg>